<svg width="12" height="13" viewBox="0 0 12 13" fill="none" xmlns="http://www.w3.org/2000/svg">
<path d="M5.83333 0C9.05508 0 11.6667 2.61158 11.6667 5.83333C11.6667 9.05508 9.05508 11.6667 5.83333 11.6667C2.61158 11.6667 0 9.05508 0 5.83333C0 2.61158 2.61158 0 5.83333 0ZM5.83333 2.33333C5.67862 2.33333 5.53025 2.39479 5.42086 2.50419C5.31146 2.61358 5.25 2.76196 5.25 2.91667V5.83333C5.25003 5.98803 5.31151 6.13638 5.42092 6.24575L7.17092 7.99575C7.28094 8.10201 7.42829 8.16081 7.58123 8.15948C7.73418 8.15815 7.88049 8.0968 7.98864 7.98864C8.0968 7.88049 8.15815 7.73418 8.15948 7.58123C8.16081 7.42829 8.10201 7.28094 7.99575 7.17092L6.41667 5.59183V2.91667C6.41667 2.76196 6.35521 2.61358 6.24581 2.50419C6.13642 2.39479 5.98804 2.33333 5.83333 2.33333Z" fill="white"/>
</svg>
